<svg width="64" height="64" viewBox="0 0 64 64" fill="none" xmlns="http://www.w3.org/2000/svg">
<path d="M36.9307 11.2533C35.1067 6.91734 28.8934 6.91734 27.0694 11.2533L22.3921 22.3653L10.2534 23.328C5.52006 23.7013 3.60006 29.544 7.20806 32.6L16.4561 40.432L13.6294 52.144C12.5281 56.712 17.5547 60.3227 21.6081 57.8747L32.0001 51.6L42.3921 57.8773C46.4454 60.3253 51.4721 56.7147 50.3707 52.144L47.5441 40.4373L56.7921 32.6027C60.4001 29.5467 58.4801 23.7067 53.7467 23.3307L41.6081 22.3707L36.9307 11.2533Z" fill="#FFC700"/>
<path d="M29.6943 32.248V29.304H34.6223V41H31.3423V32.248H29.6943Z" fill="white"/>
</svg>
