<svg width="64" height="64" viewBox="0 0 64 64" fill="none" xmlns="http://www.w3.org/2000/svg">
<path d="M36.9307 11.2533C35.1067 6.91734 28.8934 6.91734 27.0694 11.2533L22.3921 22.3653L10.2534 23.328C5.52006 23.7013 3.60006 29.544 7.20806 32.6L16.4561 40.432L13.6294 52.144C12.5281 56.712 17.5547 60.3227 21.6081 57.8747L32.0001 51.6L42.3921 57.8773C46.4454 60.3253 51.4721 56.7147 50.3707 52.144L47.5441 40.4373L56.7921 32.6027C60.4001 29.5467 58.4801 23.7067 53.7467 23.3307L41.6081 22.3707L36.9307 11.2533Z" fill="#FFC700"/>
<path d="M27.9733 38.488C29.008 37.6773 29.856 36.9787 30.5173 36.392C31.1786 35.8053 31.7333 35.2027 32.1813 34.584C32.6293 33.9547 32.8533 33.3573 32.8533 32.792C32.8533 32.4507 32.7733 32.184 32.6133 31.992C32.464 31.8 32.24 31.704 31.9413 31.704C31.632 31.704 31.392 31.8373 31.2213 32.104C31.0506 32.36 30.9706 32.7387 30.9813 33.24H27.9413C27.9733 32.2907 28.1813 31.5067 28.5653 30.888C28.9493 30.2587 29.4506 29.8 30.0693 29.512C30.688 29.2133 31.376 29.064 32.1333 29.064C33.4453 29.064 34.4213 29.3893 35.0613 30.04C35.7013 30.6907 36.0213 31.5333 36.0213 32.568C36.0213 33.6773 35.648 34.7173 34.9013 35.688C34.1653 36.6587 33.2426 37.528 32.1333 38.296H36.1333V40.84H27.9733V38.488Z" fill="white"/>
</svg>
