<svg width="64" height="64" viewBox="0 0 64 64" fill="none" xmlns="http://www.w3.org/2000/svg">
<path d="M36.9307 11.2533C35.1067 6.91734 28.8934 6.91734 27.0694 11.2533L22.3921 22.3653L10.2534 23.328C5.52006 23.7013 3.60006 29.544 7.20806 32.6L16.4561 40.432L13.6294 52.144C12.5281 56.712 17.5547 60.3227 21.6081 57.8747L32.0001 51.6L42.3921 57.8773C46.4454 60.3253 51.4721 56.7147 50.3707 52.144L47.5441 40.4373L56.7921 32.6027C60.4001 29.5467 58.4801 23.7067 53.7467 23.3307L41.6081 22.3707L36.9307 11.2533Z" fill="#FFC700"/>
<path d="M27.8852 32.792C27.9279 31.5867 28.3012 30.664 29.0052 30.024C29.7092 29.3733 30.6905 29.048 31.9492 29.048C32.7705 29.048 33.4692 29.192 34.0452 29.48C34.6319 29.7573 35.0745 30.1413 35.3732 30.632C35.6719 31.112 35.8212 31.656 35.8212 32.264C35.8212 32.9893 35.6452 33.5707 35.2932 34.008C34.9412 34.4347 34.5412 34.7227 34.0932 34.872V34.936C35.3839 35.416 36.0292 36.3333 36.0292 37.688C36.0292 38.36 35.8745 38.952 35.5652 39.464C35.2559 39.976 34.8079 40.376 34.2212 40.664C33.6345 40.952 32.9359 41.096 32.1252 41.096C30.7919 41.096 29.7359 40.776 28.9572 40.136C28.1892 39.4853 27.7892 38.4933 27.7572 37.16H30.8132C30.7919 37.5867 30.8825 37.9173 31.0852 38.152C31.2879 38.3867 31.5919 38.504 31.9972 38.504C32.3065 38.504 32.5465 38.408 32.7172 38.216C32.8985 38.024 32.9892 37.768 32.9892 37.448C32.9892 37.0427 32.8559 36.744 32.5892 36.552C32.3332 36.36 31.9119 36.264 31.3252 36.264H30.7652V33.72H31.3092C31.7145 33.7307 32.0559 33.6667 32.3332 33.528C32.6212 33.3787 32.7652 33.0853 32.7652 32.648C32.7652 32.3173 32.6852 32.072 32.5252 31.912C32.3652 31.7413 32.1465 31.656 31.8692 31.656C31.5599 31.656 31.3305 31.768 31.1812 31.992C31.0425 32.2053 30.9625 32.472 30.9412 32.792H27.8852Z" fill="white"/>
</svg>
