<svg width="64" height="64" viewBox="0 0 64 64" fill="none" xmlns="http://www.w3.org/2000/svg">
<path d="M36.9307 11.2533C35.1067 6.91734 28.8934 6.91734 27.0694 11.2533L22.3921 22.3653L10.2534 23.328C5.52006 23.7013 3.60006 29.544 7.20806 32.6L16.4561 40.432L13.6294 52.144C12.5281 56.712 17.5547 60.3227 21.6081 57.8747L32.0001 51.6L42.3921 57.8773C46.4454 60.3253 51.4721 56.7147 50.3707 52.144L47.5441 40.4373L56.7921 32.6027C60.4001 29.5467 58.4801 23.7067 53.7467 23.3307L41.6081 22.3707L36.9307 11.2533Z" fill="#FFC700"/>
<path d="M35.3938 32.072H30.5938V33.848C30.7965 33.6347 31.0738 33.464 31.4258 33.336C31.7778 33.208 32.1671 33.144 32.5938 33.144C33.3618 33.144 34.0018 33.32 34.5138 33.672C35.0365 34.024 35.4205 34.488 35.6658 35.064C35.9111 35.64 36.0338 36.2693 36.0338 36.952C36.0338 38.2107 35.6765 39.2027 34.9618 39.928C34.2471 40.6427 33.2551 41 31.9858 41C31.1005 41 30.3325 40.8507 29.6818 40.552C29.0418 40.2427 28.5511 39.816 28.2098 39.272C27.8685 38.728 27.6925 38.104 27.6818 37.4H30.7378C30.7698 37.6453 30.8765 37.8587 31.0578 38.04C31.2391 38.2213 31.5058 38.312 31.8578 38.312C32.2311 38.312 32.5138 38.184 32.7058 37.928C32.8978 37.672 32.9938 37.3307 32.9938 36.904C32.9938 36.488 32.8925 36.1733 32.6898 35.96C32.4871 35.736 32.1938 35.624 31.8098 35.624C31.5218 35.624 31.2871 35.6987 31.1058 35.848C30.9351 35.9867 30.8338 36.1627 30.8018 36.376H27.7458V29.304H35.3938V32.072Z" fill="white"/>
<path d="M36.3938 32.072H31.5938V33.848C31.7965 33.6347 32.0738 33.464 32.4258 33.336C32.7778 33.208 33.1671 33.144 33.5938 33.144C34.3618 33.144 35.0018 33.32 35.5138 33.672C36.0365 34.024 36.4205 34.488 36.6658 35.064C36.9111 35.64 37.0338 36.2693 37.0338 36.952C37.0338 38.2107 36.6765 39.2027 35.9618 39.928C35.2471 40.6427 34.2551 41 32.9858 41C32.1005 41 31.3325 40.8507 30.6818 40.552C30.0418 40.2427 29.5511 39.816 29.2098 39.272C28.8685 38.728 28.6925 38.104 28.6818 37.4H31.7378C31.7698 37.6453 31.8765 37.8587 32.0578 38.04C32.2391 38.2213 32.5058 38.312 32.8578 38.312C33.2311 38.312 33.5138 38.184 33.7058 37.928C33.8978 37.672 33.9938 37.3307 33.9938 36.904C33.9938 36.488 33.8925 36.1733 33.6898 35.96C33.4871 35.736 33.1938 35.624 32.8098 35.624C32.5218 35.624 32.2871 35.6987 32.1058 35.848C31.9351 35.9867 31.8338 36.1627 31.8018 36.376H28.7458V29.304H36.3938V32.072Z" fill="white"/>
</svg>
